inDegrees=no
num_controls=7
num_derivatives=13
num_iterations=130
num_multipliers=7
num_parameters=0
num_slacks=7
num_states=26
objective=0.539083
objective_accelerations=0.073508
objective_balance=0.003571
objective_effort=0.051006
objective_height=0.402010
objective_ligament=0.008988
solver_duration=1342.575772
status=Solve_Succeeded
success=true
DataType=double
version=3
OpenSimVersion=4.5
endheader
time	/jointset/ground_pelvis/pelvis_tilt/value	/jointset/ground_pelvis/pelvis_tx/value	/jointset/ground_pelvis/pelvis_ty/value	/jointset/hip_r/hip_flexion_r/value	/jointset/hip_r/hip_adduction_r/value	/jointset/hip_r/hip_rotation_r/value	/jointset/back/lumbar_extension/value	/jointset/patellofemoral_r/patellar_flexion_r/value	/jointset/knee_r/knee_flexion_r/value	/jointset/knee_r/knee_adduction_r/value	/jointset/knee_r/knee_rotation_r/value	/jointset/ankle_r/ankle_angle_r/value	/jointset/subtalar_r/subtalar_angle_r/value	/jointset/ground_pelvis/pelvis_tilt/speed	/jointset/ground_pelvis/pelvis_tx/speed	/jointset/ground_pelvis/pelvis_ty/speed	/jointset/hip_r/hip_flexion_r/speed	/jointset/hip_r/hip_adduction_r/speed	/jointset/hip_r/hip_rotation_r/speed	/jointset/back/lumbar_extension/speed	/jointset/patellofemoral_r/patellar_flexion_r/speed	/jointset/knee_r/knee_flexion_r/speed	/jointset/knee_r/knee_adduction_r/speed	/jointset/knee_r/knee_rotation_r/speed	/jointset/ankle_r/ankle_angle_r/speed	/jointset/subtalar_r/subtalar_angle_r/speed	/forceset/tau_hip_flexion_r	/forceset/tau_hip_adduction_r	/forceset/tau_hip_rotation_r	/forceset/tau_knee_flexion_r	/forceset/tau_ankle_angle_r	/forceset/tau_subtalar_angle_r	/forceset/tau_lumbar_extension	lambda_cid13_p0	lambda_cid14_p0	lambda_cid14_p1	lambda_cid14_p2	lambda_cid14_p3	lambda_cid14_p4	lambda_cid14_p5	/jointset/ground_pelvis/pelvis_tilt/accel	/jointset/ground_pelvis/pelvis_tx/accel	/jointset/ground_pelvis/pelvis_ty/accel	/jointset/hip_r/hip_flexion_r/accel	/jointset/hip_r/hip_adduction_r/accel	/jointset/hip_r/hip_rotation_r/accel	/jointset/back/lumbar_extension/accel	/jointset/patellofemoral_r/patellar_flexion_r/accel	/jointset/knee_r/knee_flexion_r/accel	/jointset/knee_r/knee_adduction_r/accel	/jointset/knee_r/knee_rotation_r/accel	/jointset/ankle_r/ankle_angle_r/accel	/jointset/subtalar_r/subtalar_angle_r/accel	gamma_cid13_p0	gamma_cid14_p0	gamma_cid14_p1	gamma_cid14_p2	gamma_cid14_p3	gamma_cid14_p4	gamma_cid14_p5
0	-0.006119614512221366	0.09609576903449667	0.9427214090115325	0.1762555222360518	-0.2322578178438274	-0.2587808581720146	-0.038598046466844	0.07317863873451699	0.07317863873451017	0.174525371355751	0.1717974790793329	0.03247278518263602	-0.003603637498472912	0	0	0	0	0	0	0	0	0	0	0	0	0	0.2350395396364276	-0.1522032912933914	-0.04192071408760942	-0.3952377342045706	0.3682106530056181	-0.1466239658300547	-0.1345348330024037	-38.99750023787124	68.34270044551883	-42.02385005335393	-3.907022537147196	-16.65538122352617	-673.4088274625055	52.35862397093481	-3.104846483496019	-1.830189690080124	-0.8577042776870282	12.89760435970191	0.3291771275561535	3.039889888525351	-5.703162007972922	12.46090809709023	12.46090809709037	-3.974099341257864	0.4525814581004484	3.750416838474016	1.188663242941954	1.614464233175835e-07	8.325359561561469e-08	-1.103899947491416e-06	3.591610381566236e-07	6.233517607290489e-08	4.604228065613773e-08	-5.639876869280242e-07
0.01	-0.006265128517792563	0.09600600755497996	0.9426801645178744	0.1768793811365697	-0.2322399745568353	-0.2586184581945086	-0.038887313015013	0.07378450009718457	0.07378450009717814	0.1743272578052267	0.1718049071089306	0.03265625704258419	-0.003543804057128145	-0.02896433098102804	-0.01781885999364899	-0.008233600639907353	0.1241432430653502	0.003490231683770238	0.03232474779978169	-0.05741502312979892	0.1206620609107146	0.1206620609107116	-0.03930462841035227	0.001487314049481368	0.03659052915382491	0.01186212474877392	0.2300046427316087	-0.1616969169527079	-0.04087966105925343	-0.3909054516752378	0.3616213851559681	-0.1351972741778517	-0.1301127261552344	-39.01796815007924	66.68816941700268	-37.41962012771991	-4.562609813039314	-16.79687963418016	-673.7399571824437	61.04059246724348	-2.771447671251504	-1.737706301082662	-0.8038840349126368	12.07841181292647	0.347072370069717	3.305567176603439	-5.694929489521073	11.792291055495	11.79229105549457	-3.861068107086494	-0.002834100682163216	3.597821084800485	1.169170195525366	2.202893786360278e-07	8.877769858294548e-08	-1.500328399153319e-06	3.4200159554067e-07	1.155501390887769e-07	-2.412375869534806e-07	-6.546711854893513e-07
0.02	-0.00669613008635142	0.09574206304611108	0.942557044802263	0.1787258179743296	-0.2321896037167485	-0.2581374507488232	-0.0397375811992887	0.07558166926244314	0.07558166926244275	0.1737456132673549	0.1718272801832171	0.03320252422026316	-0.003368512747359549	-0.05709751259583525	-0.03483660587043101	-0.01637504439063229	0.244515587449693	0.006505510618831215	0.06372149363551644	-0.1122003272210767	0.2382615605187463	0.2382615605187442	-0.07670619746720707	0.002989008936797993	0.07255906354619762	0.02309157368475707	0.224969745826789	-0.1711905426120262	-0.03983860803088083	-0.3865731691459103	0.3550321173063181	-0.1237705825256509	-0.1256906193080629	-39.0783955100002	65.14659513167122	-32.82281344644845	-5.185937636658778	-17.13186528595273	-672.2951286724806	69.40931851455326	-2.938616610251646	-1.669966866706931	-0.8392728998505389	12.14342462350045	0.2341865778142996	2.854289495715943	-5.177218200268567	11.84839583655369	11.8483958365546	-3.593487470558372	0.4554576256675225	3.626017886183353	1.062128080383746	2.791323339544721e-07	9.430180155027626e-08	-1.896756850815221e-06	3.248421529247164e-07	1.687651021046488e-07	-5.285174545630989e-07	-7.453546840506784e-07
0.03	-0.007405086195381371	0.09531115942779902	0.9423524962798739	0.1817591416711133	-0.2321112894854833	-0.2573501009600871	-0.0411225612065443	0.07854027556941343	0.07854027556941048	0.1727995147475934	0.1718672231282929	0.03410443106547251	-0.003084058109684699	-0.08455671231922915	-0.05128612037838257	-0.02455247648349831	0.3615985403617611	0.009113769244254454	0.09357435705507654	-0.1644362837470717	0.3529058557048297	0.3529058557048229	-0.1122246733873283	0.004948497250022524	0.1076043934110273	0.03370857709126865	0.2174815554727109	-0.1748549996725925	-0.03781698674745372	-0.3780519387083636	0.341342527007176	-0.1143672436861034	-0.1198416828648653	-39.17700861662009	61.20400249203593	-29.51680166254608	-5.613017926515053	-15.01288772122422	-670.9341768012496	74.73980801529453	-2.628994315290769	-1.623710163311029	-0.8097576876538957	11.40815541355201	0.2673838851054987	3.02476895514564	-5.192875805969913	11.18931351993621	11.18931351993499	-3.48797133653257	0.05866120165060938	3.411157851499357	1.047607041879838	3.126208720438052e-07	1.002531805653726e-07	-2.103274470627148e-06	3.85542620743466e-07	1.972418821318213e-07	-6.890357868246392e-07	-8.598743021478199e-07
0.04	-0.008384518834034764	0.09471750738031254	0.9420656175718263	0.1859467798547098	-0.2320082449919239	-0.2562694256991414	-0.04301911906450234	0.08262869826030497	0.08262869826030461	0.1715068427318731	0.1719252543099998	0.03535026467230284	-0.002696209323725737	-0.1111928185188934	-0.06738629170531839	-0.0328410815223498	0.4753784848135057	0.01145156307764323	0.1223865880774198	-0.214515897361237	0.4642248373029353	0.464224837302922	-0.1460208966591929	0.006606656263275805	0.1413444158705181	0.04377040334157867	0.2099933651186344	-0.1785194567331562	-0.03579536546403141	-0.3695307082708129	0.3276529367080373	-0.1049639048465524	-0.1139927464216688	-39.31131763304997	57.36367194821664	-26.21148679023936	-6.018734798780564	-13.0749048090926	-667.9815353893154	79.79271769915015	-2.773997905505524	-1.600098230503973	-0.8615074890476278	11.48282293143578	0.1800936194074122	2.646163016272557	-4.745949617902525	11.18333311895819	11.18333311895874	-3.249036940907075	0.3951917656732931	3.364956405115386	0.951092649143389	3.455866386438783e-07	1.062133693958868e-07	-2.305876403184437e-06	4.478484475402507e-07	2.252085965303607e-07	-8.469404791820952e-07	-9.748853866271433e-07
0.05	-0.009627028776952947	0.09396483024935175	0.9416948997321558	0.1912571602551009	-0.2318830824281427	-0.2549084410054449	-0.04540479772797083	0.08781551638953361	0.08781551638953082	0.1698846811873641	0.1720009811047289	0.03692785418633218	-0.002210152110979058	-0.1371680615381825	-0.08306285084881754	-0.04134567883971092	0.58612059483659	0.01353807190467561	0.1496246374925547	-0.2622575065654852	0.5726027069778719	0.5726027069778644	-0.1781046697440068	0.008471784952857591	0.1739941140642213	0.05336216455395851	0.202574950995613	-0.1670500740385831	-0.03398391386664355	-0.3630999524159909	0.3203293234794261	-0.109744718817053	-0.10817407403323	-39.47838355269457	55.02285884694427	-28.76636041913585	-5.53293988780896	-12.02029203483371	-665.2762408949314	72.99626048308706	-2.488081682670729	-1.538446943372858	-0.8515853813535311	10.78337711164668	0.2162413521780303	2.734900566150892	-4.733917256312484	10.58453227340198	10.58453227340249	-3.142352630211999	0.07229920410883273	3.1881355347866	0.9510742387907507	3.336452097836895e-07	9.719001493273636e-08	-2.194789781562497e-06	4.814738945086956e-07	2.263917564905661e-07	-9.179897821419078e-07	-9.874759155577846e-07
0.06	-0.01112504998657759	0.09305798508953542	0.941237806013657	0.1976576561704978	-0.2317383924085255	-0.2532806208851926	-0.04825702262040821	0.0940700168918394	0.0940700168918386	0.1679508208844158	0.1720933843430552	0.03882657248395604	-0.001630606009807481	-0.1622950718586474	-0.09821989747642218	-0.05011625728800711	0.6934015878157481	0.0153570542447835	0.1757536733883665	-0.3078251431547681	0.6777613119184323	0.6777613119184277	-0.2083606483465584	0.009941944982768541	0.2055701725894749	0.06246818102655645	0.1951565368725948	-0.1555806913440115	-0.0321724622692563	-0.3566691965611682	0.3130057102508155	-0.114525532787555	-0.1023554016447877	-39.67472774718022	52.77295441024185	-31.3335541718953	-5.012923884243275	-11.11303114710292	-661.1268612099863	65.91528990471731	-2.604351365740512	-1.496195727325257	-0.9147037152346374	10.79059952265058	0.1265883220225194	2.424360312407928	-4.311155094909373	10.539480172083	10.53948017208297	-2.883478044454631	0.3161980337391463	3.15022847142528	0.8539437011869684	3.198129516409633e-07	8.753577443616843e-08	-2.070495220817222e-06	5.13891746537e-07	2.264471878428416e-07	-9.853820160744511e-07	-9.957540000442707e-07
0.07000000000000001	-0.01287114227657937	0.09200211665023651	0.9406913171276741	0.2051155609210896	-0.2315768236808219	-0.2513998883450676	-0.05155327821327144	0.1013616676416429	0.1013616676416406	0.1657234915924492	0.1722014320998951	0.04103607412975972	-0.0009622499755820037	-0.1867896080392881	-0.1128670488608087	-0.05924414263994898	0.7976146275464028	0.01693321670309672	0.2001996013505893	-0.3510828856387039	0.7800266763748808	0.7800266763748653	-0.2368226362616097	0.01158005242769768	0.2361474690396797	0.07114583888932627	0.1874908682398787	-0.1503710912375837	-0.03018534103129423	-0.3510052001939852	0.3048295849359046	-0.1128474887253167	-0.09641042106582333	-39.89660309371622	50.46541990531372	-31.14346274025777	-4.889426975655974	-10.28067809937339	-657.4471699137597	64.30543180263959	-2.351895853482508	-1.435918325995613	-0.9214222481447669	10.15196846148746	0.169411061851985	2.425860845270573	-4.281620357946937	9.988676537492083	9.988676537490432	-2.785437715101518	0.07464499310028516	2.984132620937458	0.8658342940547153	2.800074432032612e-07	7.625096919741234e-08	-1.741721626376144e-06	5.76646042000586e-07	2.034233379652027e-07	-9.649438340130376e-07	-9.744440026981363e-07
0.08	-0.01485815815024604	0.09080238800069319	0.9400516311275775	0.2135986585216252	-0.2314002371577114	-0.249280466163891	-0.05527181853753745	0.1096596944270234	0.1096596944270235	0.1632199667113161	0.1723232665098307	0.04354587921788899	-0.0002088858696822759	-0.2104797885901673	-0.1269919395253065	-0.06875568011072729	0.8984401578056369	0.0183606133260605	0.2234916015984566	-0.392282089435065	0.8790365190339821	0.8790365190339545	-0.2635997661795064	0.01269927560184675	0.2656308610546578	0.07946979536140453	0.1798251996071614	-0.1451614911311567	-0.02819821979333137	-0.345341203826804	0.2966534596209938	-0.1111694446630792	-0.09046544048685881	-40.1397800195348	48.2376309674575	-30.95866300945575	-4.743091851174206	-9.571372269528895	-652.5083479568057	62.44672957976611	-2.443480239788041	-1.391743583347678	-0.9914341390019198	10.11309762836647	0.09683515495263982	2.193574769536816	-3.899447357394344	9.888375812613607	9.888375812613313	-2.546506445023726	0.2124211795831535	2.931447584379765	0.7832034230486142	2.385262411981415e-07	6.486096623335381e-08	-1.399755836212757e-06	6.413575273632222e-07	1.78910502201763e-07	-9.388391735004008e-07	-9.512250968466718e-07
